<svg viewBox="0 0 610 610" xmlns="http://www.w3.org/2000/svg">
<g transform="translate(5 -397.36)">
<g fill="#fff" transform="matrix(6.4515 0 0 6.4044 -2200 -2653)">
<path d="m364.35 501.82c.6494 11.831 10.444 21.219 22.438 21.219 11.993 0 21.819-9.3879 22.469-21.219h-44.906z"/>
<path d="m374.42 485.66c1.3991 0 2.5254 1.1263 2.5254 2.5254v14.142c0 1.3991-1.1263 2.5254-2.5254 2.5254s-2.5254-1.1263-2.5254-2.5254v-14.142c0-1.3991 1.1263-2.5254 2.5254-2.5254z"/>
<path d="m398.42 485.66c1.3991 0 2.5254 1.1263 2.5254 2.5254v14.142c0 1.3991-1.1263 2.5254-2.5254 2.5254s-2.5254-1.1263-2.5254-2.5254v-14.142c0-1.3991 1.1263-2.5254 2.5254-2.5254z"/>
<path d="m397.41 514.08-7.6786 17.5 12.857-3.3929-16.25 35.536.71429-23.036-16.786 6.9643 13.393-35.714 13.75 2.1429z"/>
</g>
</g>
</svg>