<svg viewBox="0 0 18.593 23.737" xmlns="http://www.w3.org/2000/svg" xmlns:xlink="http://www.w3.org/1999/xlink"><linearGradient id="a"><stop offset="0" stop-color="#888a85"/><stop offset="1" stop-color="#d3d7cf" stop-opacity="0"/></linearGradient><linearGradient id="b"><stop offset="0" stop-color="#a0a0a0"/><stop offset="1" stop-color="#5a5a5a"/></linearGradient><radialGradient id="c" cx="27.5775945" cy="15.2313315" gradientUnits="userSpaceOnUse" r="5.66782975" xlink:href="#a"/><radialGradient id="d" cx="27.5768186" cy="14.9685064" gradientUnits="userSpaceOnUse" r="5.1437903" xlink:href="#a"/><radialGradient id="e" cx="4.6022" cy="34.157" gradientTransform="matrix(1.0789 0 0 .35965 7.0345 8.7165)" gradientUnits="userSpaceOnUse" r="8.3415"><stop offset="0"/><stop offset="1" stop-opacity="0"/></radialGradient><radialGradient id="f" cx="16.184" cy="16.539" gradientTransform="matrix(2.4962 -.051967 .034952 1.3187 -33.818 -14.924)" gradientUnits="userSpaceOnUse" r="13.477"><stop offset="0" stop-color="#fafafa"/><stop offset="1" stop-color="#c8c8c8"/></radialGradient><linearGradient id="g" gradientTransform="matrix(.57793 0 0 .5122 -2.1936 -.29268)" gradientUnits="userSpaceOnUse" x1="24.559" x2="24.5" xlink:href="#b" y1="3" y2="45"/><linearGradient id="h" gradientTransform="matrix(.54954 0 0 .48718 -1.5759 .30769)" gradientUnits="userSpaceOnUse" x1="23.823" x2="24.559" y1="4.1102" y2="44"><stop offset="0" stop-color="#fff"/><stop offset="1" stop-color="#fff" stop-opacity="0"/></linearGradient><linearGradient id="i" gradientUnits="userSpaceOnUse" x1="805.24" x2="805.79" y1="640.99" y2="644.33"><stop offset="0" stop-color="#888a85"/><stop offset="1" stop-color="#888a85" stop-opacity="0"/></linearGradient><linearGradient id="j" gradientUnits="userSpaceOnUse" x1="798.31" x2="805.72" xlink:href="#b" y1="637.36" y2="646.55"/><path d="m862.19 615-4.1423-.28284s-.16096.14905-.16265.30384c-.002.15478.15586.29784.15586.29784l4.1491-.31176h2.0894l-2.0894-.007z" fill="#2e3436" fill-rule="evenodd" stroke="#2e3436" stroke-linejoin="round" stroke-width=".52833" transform="translate(-851.806 -601.77)"/><g transform="translate(-851.806 -601.77)"><path d="m858.2 610.72-.28284 4.1423s.14906.16096.30384.16265c.15478.002.29784-.15586.29784-.15586l-.31176-4.1491v-2.0894l-.007 2.0894z" fill="#2e3436" fill-rule="evenodd" stroke="#2e3436" stroke-linejoin="round" stroke-width=".52833"/><g enable-background="new" fill="none" stroke-miterlimit="10" transform="matrix(-.22409 -.44966 .44966 -.22409 854.13 623.833)"><path d="m30.911 18.605c0 1.841-1.4925 3.3335-3.3335 3.3335s-3.3335-1.4925-3.3335-3.3335 1.4925-3.3335 3.3335-3.3335 3.3335 1.4925 3.3335 3.3335z" stroke="url(#c)" stroke-width="1.5866" transform="matrix(0 -1.7738 -1.7738 0 57 70.164)"/><path d="m30.911 18.605c0 1.841-1.4925 3.3335-3.3335 3.3335s-3.3335-1.4925-3.3335-3.3335 1.4925-3.3335 3.3335-3.3335 3.3335 1.4925 3.3335 3.3335z" stroke="url(#d)" stroke-width=".8115" transform="matrix(0 -3.4678 -3.4678 0 88.518 116.88)"/></g></g><g transform="matrix(.64687 0 0 .64687 5.007 8.209)"><path d="m21 21.001a9 3 0 0 1 -18 0 9 3 0 1 1 18 0z" fill="url(#e)" opacity=".5"/><path d="m12.02 1.5c-2.525 0-5.0609.5108-6.249 1.5206-1.8031 3.371-1.2192 6.4991-1.087 9.7474-.064305 1.5366-.24827 3.0732 0 4.6098.2453 2.86 3.7077 5.122 7.3 5.122 3.592 0 7.136-2.262 7.381-5.122.169-.847.167-2.378 0-4.498.059-3.88.71-6.4489-1.114-9.8594-1.189-1.0098-3.706-1.5206-6.231-1.5206z" fill="url(#f)" stroke="url(#g)"/><path d="m11.939 2.5c-2.2654 0-4.5196.5126-5.4779 1.2636-1.4611 3.2364-.8783 5.8601-.6891 8.8604.0026.04128.000159.08077 0 .12179-.094269 2.2095-.35171 2.2015-.109 4.2324.71874 3.1344 3.374 3.9981 6.242 4.5216 3.1583 0 6.18-1.9649 6.39-4.4151.26865-1.3992.08376-2.8212.026-4.2324-.000157-.04103-.0048-.0807 0-.12179.318-2.731.679-5.731-.921-8.9674-.959-.7525-3.195-1.2636-5.461-1.2636z" fill="none" opacity=".7" stroke="url(#h)"/></g><g stroke-linecap="round" stroke-linejoin="round" stroke-width=".5"><path d="m808.22 643.95c0 1.4239-1.2242 2.5781-2.7344 2.5781s-2.7344-1.1543-2.7344-2.5781 1.2242-2.5781 2.7344-2.5781 2.7344 1.1543 2.7344 2.5781z" fill="url(#i)" stroke="url(#j)" transform="translate(-792.646 -630.39)"/><path d="m804.31 643.89c0 .0976-.089.17678-.19887.17678-.10984 0-.19888-.0791-.19888-.17678 0-.0976.089-.17677.19888-.17677.10983 0 .19887.0791.19887.17677z" fill="#fff" stroke="#5f5f5f" transform="matrix(1.0775 0 0 1.2122 -854.696 -766.95)"/><path d="m804.31 643.89c0 .0976-.089.17678-.19887.17678-.10984 0-.19888-.0791-.19888-.17678 0-.0976.089-.17677.19888-.17677.10983 0 .19887.0791.19887.17677z" fill="#fff" stroke="#5f5f5f" transform="matrix(1.0775 0 0 1.2122 -852.416 -766.95)"/></g></svg>